<?xml version="1.0" encoding="utf-8"?>
<!-- Generator: Adobe Illustrator 26.3.1, SVG Export Plug-In . SVG Version: 6.00 Build 0)  -->
<svg version="1.1" id="Layer_1" xmlns="http://www.w3.org/2000/svg" xmlns:xlink="http://www.w3.org/1999/xlink" x="0px" y="0px"
	 viewBox="0 0 595.28 841.89" style="enable-background:new 0 0 595.28 841.89;" xml:space="preserve">
<style type="text/css">
	.st0{fill:#FFFFFF;}
	.st1{fill:none;stroke:#FFFFFF;stroke-miterlimit:10;}
	.st2{fill:#FDD700;stroke:#000000;stroke-miterlimit:10;}
	.st3{fill:#FFFFFF;stroke:#000000;stroke-miterlimit:10;}
	.st4{stroke:#000000;stroke-miterlimit:10;}
	.st5{fill:none;stroke:#000000;stroke-miterlimit:10;}
</style>
<g>
	<g>
		<path class="st0" d="M-69.32,386.69c3.22,0,3.22-5,0-5C-72.53,381.69-72.54,386.69-69.32,386.69L-69.32,386.69z"/>
	</g>
</g>
<path class="st1" d="M267.43,317.94"/>
<g>
	<path class="st2" d="M312.97,608c-3.41-6.97,1.85-14.34-3.72-19.98c-4.26-4.32-8.49-1.14-15.86-5.78
		c-7.8-4.91-7.1-11.02-13.91-13.91c-5.82-2.47-11.73-0.31-14.43,0.52c-22.69,6.99-71.91-1.47-78.32-20.1
		c-1.59-4.62,0.69-6.29,4.64-21.13c0,0,4.52-16.95,6.7-43.28c2.72-32.78-2.78-87.62-1.03-100.48c0.23-1.66,0.78-4.1,2.58-6.18
		c3.15-3.65,8.03-3.81,9.27-4.12c14.4-3.65-2.83-143.34,4.64-145.3c3.45-0.91,12.31,27.5,19.58,26.28
		c6.81-1.14,6.14-27.26,11.85-27.82c6.07-0.6,11.62,28.38,17.52,27.82c6.15-0.58,6.87-32.63,11.34-32.75
		c4.21-0.11,6.36,28.35,12.37,28.63c6.13,0.29,10.71-29.06,16.49-28.63c5.22,0.39,5.34,24.69,11.85,25.54
		c6.43,0.84,12.63-22.1,18.03-21.13c5.68,1.03,3.59,27.28,9.27,28.34c5.62,1.05,12.69-23.67,18.55-22.67
		c6.14,1.04,3.85,29.13,10.31,30.4c6.51,1.28,16.08-25.86,19.58-24.73c3.79,1.22-5.27,33.64,0,35.75
		c5.13,2.05,19.48-26.35,24.32-24.32c4.69,1.97-5.09,30.18,0,32.53c5.79,2.68,24.29-31.1,28.94-28.94
		c4.12,1.92-6.26,30.44-14.1,58.66c-7.45,26.83-10.98,50.86-18.03,98.93c-8.73,59.51-13.1,89.27-11.34,122.63
		c0.83,15.63,4.12,59.25,4.12,59.25l0,0c-0.01,0-15.06,13.47-25.76,19.58C354.84,625.06,319.6,621.57,312.97,608z"/>
	<g>
		<circle class="st3" cx="217.9" cy="434.31" r="44.22"/>
		<circle class="st3" cx="302.23" cy="440.1" r="50.36"/>
		<circle class="st4" cx="217.9" cy="434.31" r="5.6"/>
		<circle class="st4" cx="318.3" cy="436.52" r="5.6"/>
	</g>
	<path class="st2" d="M256.86,459.65c-26.75,4.87-43.71,6.68-55.23,6.9c-2.92,0.06-9.55,0.09-12.89,4.46
		c-3.22,4.2-2.74,11.55,0.31,16.61c8,13.31,34.37,12,47.96,11.32c3.81-0.19,6.98-0.52,9.25-0.81"/>
	<path class="st5" d="M269.35,567.16c8.2-0.26,17.86-1.24,28.49-3.67c16.14-3.69,29.22-9.51,38.88-14.79"/>
	<path class="st2" d="M382.28,483.91c7.03-5.48,15.65-6.94,22.16-3.61c5.89,3.02,8.03,8.92,9.27,12.37
		c0.85,2.35,5.2,14.36-2.06,23.7c-4.95,6.37-12.23,7.56-13.4,7.73c-7.46,1.1-13.02-2.2-14.43-3.09"/>
	<path class="st5" d="M397.54,508.79c-2.1-3.25-3.46-6.98-3.93-10.82c-0.07-0.59-0.13-1.21-0.42-1.72c-0.7-1.25-2.53-1.43-3.8-0.77
		c-1.27,0.66-2.11,1.91-2.89,3.11c4.73-2.92,10.29-4.5,15.85-4.5c0.78,0,1.64,0.06,2.2,0.61c0.56,0.54,0.47,1.73-0.3,1.89"/>
	<path class="st5" d="M330.29,545.53c4.78,0.81,9.32,3.03,12.89,6.31"/>
</g>
</svg>
